<svg id="Ebene_1" data-name="Ebene 1" xmlns="http://www.w3.org/2000/svg" viewBox="0 0 1000 1000"><defs><style>.cls-1{fill:#f2f2f2;}</style></defs><path class="cls-1" d="M223.58,535.81s0,27.2-31.16,27.2H98.57V530.22h30.8v5.95a86.29,86.29,0,0,0,31.16,5.58c8.65,0,35.13-2.52,35.13-11.89,0-20.53-97.09-67.91-97.09-67.91s0-24.68,29.9-24.68h95.11v33H192.42v-5.95s-9-5.4-24.5-5.4a79.7,79.7,0,0,0-27.74,5.4C148.1,466.81,223.58,499.06,223.58,535.81Z"/><path class="cls-1" d="M278.55,462.85v24.32h62v22.34h-62v26.66h63.77V530.4h30.62c0,32.07-29.36,32.61-32.42,32.61H247.21V437.27h93.31c2.16,0,32.42,0,32.42,31.34H342.32v-5.76Z"/><path class="cls-1" d="M522.48,525.36v6.48c0,.18,0,31.17-28.82,31.17H427.37s-31.16,0-31.16-31.17V468.07s.18-31,31.16-31H491s31.52,0,31.52,31v5.77h-30.8v-6.49h-62V531.3h62v-5.94Z"/><path class="cls-1" d="M703.13,430.92s57.42,0,57.42,57.42H612.26s90.87,100.36,90.87,259h-53.8c0-159.13-114.38-259-114.38-259V430.92Z"/><path class="cls-1" d="M732.82,569.18s-57.41,0-57.41-57.42H823.69s-90.87-100.36-90.87-259h53.8c0,159.14,114.38,259,114.38,259v57.42Z"/></svg>