<svg xmlns="http://www.w3.org/2000/svg" viewBox="0 0 802.43 494.67"><defs><style>.cls-1{fill:#f2f2f2;}</style></defs><g id="Ebene_2" data-name="Ebene 2"><g id="Ebene_1-2" data-name="Ebene 1"><path class="cls-1" d="M125,283.09s0,27.2-31.17,27.2H0V277.51H30.8v5.94A86.18,86.18,0,0,0,62,289c8.64,0,35.12-2.52,35.12-11.89C97.09,256.61,0,209.24,0,209.24s0-24.68,29.9-24.68H125v33H93.85v-5.94s-9-5.41-24.5-5.41a79.78,79.78,0,0,0-27.74,5.41C49.54,214.1,125,246.34,125,283.09Z"/><path class="cls-1" d="M180,210.14v24.32h62v22.33H180v26.66h63.77v-5.76h30.62c0,32.06-29.36,32.6-32.42,32.6H148.64V184.56H242c2.16,0,32.42,0,32.42,31.34H243.75v-5.76Z"/><path class="cls-1" d="M423.92,272.64v6.49c0,.18,0,31.16-28.82,31.16H328.81s-31.17,0-31.17-31.16V215.36s.18-31,31.17-31h63.58s31.53,0,31.53,31v5.77H393.11v-6.49h-62v63.95h62v-5.95Z"/><path class="cls-1" d="M604.56,178.21s57.42,0,57.42,57.41H513.69S604.56,336,604.56,494.67H550.77c0-159.13-114.38-259-114.38-259V178.21Z"/><path class="cls-1" d="M634.26,316.46s-57.42,0-57.42-57.41H725.13S634.26,158.68,634.26,0h53.79c0,159.14,114.38,259.05,114.38,259.05v57.41Z"/></g></g></svg>