<?xml version="1.0" encoding="UTF-8"?>
<svg xmlns="http://www.w3.org/2000/svg" xmlns:xlink="http://www.w3.org/1999/xlink" viewBox="0 0 64 64" width="64px" height="64px">
<g id="surface31455120">
<path style=" stroke:none;fill-rule:nonzero;fill:rgb(80.000001%,80.000001%,80.000001%);fill-opacity:1;" d="M 42 5.5 C 41.148438 5.5 40.5 6.148438 40.5 7 C 40.5 7.851562 41.148438 8.5 42 8.5 L 53.402344 8.5 L 30.199219 31.699219 C 29.601562 32.300781 29.601562 33.25 30.199219 33.800781 C 30.5 34.101562 30.898438 34.25 31.25 34.25 C 31.601562 34.25 32 34.101562 32.300781 33.800781 L 55.5 10.601562 L 55.5 22 C 55.5 22.851562 56.148438 23.5 57 23.5 C 57.851562 23.5 58.5 22.851562 58.5 22 L 58.5 7 C 58.5 6.148438 57.851562 5.5 57 5.5 Z M 12 15.5 C 8.398438 15.5 5.5 18.398438 5.5 22 L 5.5 52 C 5.5 55.601562 8.398438 58.5 12 58.5 L 42 58.5 C 45.601562 58.5 48.5 55.601562 48.5 52 L 48.5 29.5 C 48.5 28.648438 47.851562 28 47 28 C 46.148438 28 45.5 28.648438 45.5 29.5 L 45.5 52 C 45.5 53.949219 43.949219 55.5 42 55.5 L 12 55.5 C 10.050781 55.5 8.5 53.949219 8.5 52 L 8.5 22 C 8.5 20.050781 10.050781 18.5 12 18.5 L 34.5 18.5 C 35.351562 18.5 36 17.851562 36 17 C 36 16.148438 35.351562 15.5 34.5 15.5 Z M 12 15.5 "/>
</g>
</svg>
